<?xml version="1.0" standalone="no"?>
<!DOCTYPE svg PUBLIC "-//W3C//DTD SVG 20010904//EN"
 "http://www.w3.org/TR/2001/REC-SVG-20010904/DTD/svg10.dtd">
<svg version="1.0" xmlns="http://www.w3.org/2000/svg"
 width="32.000000pt" height="32.000000pt" viewBox="0 0 32.000000 32.000000"
 preserveAspectRatio="xMidYMid meet">

<g transform="translate(0.000000,32.000000) scale(0.100000,-0.100000)"
fill="#000000" stroke="none">
<path d="M163 280 c0 -25 2 -35 4 -22 2 12 2 32 0 45 -2 12 -4 2 -4 -23z"/>
<path d="M130 280 c-6 -45 -37 -54 -43 -13 -3 23 -4 21 -6 -10 -1 -35 1 -38
22 -32 33 11 39 19 35 56 l-4 34 -4 -35z"/>
<path d="M201 268 c0 -21 1 -38 3 -38 2 0 13 -3 23 -6 17 -6 17 -6 1 7 -9 8
-19 28 -21 44 -4 27 -4 26 -6 -7z"/>
<path d="M22 270 c-16 -7 -22 -18 -22 -39 0 -36 7 -41 37 -30 25 9 31 39 8 39
-9 0 -12 -6 -9 -15 4 -10 0 -15 -11 -15 -26 0 -15 44 13 48 12 2 22 8 22 13 0
11 -8 11 -38 -1z"/>
<path d="M262 243 c3 -33 7 -38 31 -41 24 -3 27 0 27 28 0 24 -6 33 -26 40
-36 14 -36 14 -32 -27z m46 -11 c2 -15 -2 -22 -12 -22 -11 0 -16 9 -16 26 0
31 23 28 28 -4z"/>
<path d="M102 202 c-33 -13 -42 -21 -39 -34 4 -15 -1 -18 -29 -18 -23 0 -34
-5 -34 -15 0 -25 61 -85 112 -111 l48 -24 48 24 c51 26 112 86 112 111 0 12
-20 15 -110 15 -88 0 -110 3 -110 14 0 22 55 37 90 25 17 -6 30 -15 30 -20 0
-5 9 -9 20 -9 37 0 20 26 -27 43 -57 20 -56 20 -111 -1z m21 -92 c29 -32 46
-37 65 -18 19 19 14 28 -14 28 -14 0 -23 4 -19 10 8 13 82 13 90 1 7 -13 -64
-81 -85 -81 -20 0 -92 69 -84 81 9 15 20 10 47 -21z"/>
</g>
</svg>
